<?xml version="1.0" standalone="no"?>
<svg xmlns:xlink="http://www.w3.org/1999/xlink" id="wave" style="transform:rotate(0deg); transition: 0.3s" viewBox="0 0 1440 490" version="1.1" xmlns="http://www.w3.org/2000/svg"><defs><linearGradient id="sw-gradient-0" x1="0" x2="0" y1="1" y2="0"><stop stop-color="rgba(243, 106, 62, 1)" offset="0%"/><stop stop-color="rgba(255, 179, 11, 1)" offset="100%"/></linearGradient></defs><path style="transform:translate(0, 0px); opacity:1" fill="url(#sw-gradient-0)" d="M0,196L240,163.3C480,131,960,65,1440,65.3C1920,65,2400,131,2880,171.5C3360,212,3840,229,4320,269.5C4800,310,5280,376,5760,400.2C6240,425,6720,408,7200,383.8C7680,359,8160,327,8640,277.7C9120,229,9600,163,10080,138.8C10560,114,11040,131,11520,147C12000,163,12480,180,12960,204.2C13440,229,13920,261,14400,285.8C14880,310,15360,327,15840,310.3C16320,294,16800,245,17280,245C17760,245,18240,294,18720,294C19200,294,19680,245,20160,212.3C20640,180,21120,163,21600,130.7C22080,98,22560,49,23040,57.2C23520,65,24000,131,24480,130.7C24960,131,25440,65,25920,89.8C26400,114,26880,229,27360,228.7C27840,229,28320,114,28800,81.7C29280,49,29760,98,30240,138.8C30720,180,31200,212,31680,187.8C32160,163,32640,82,33120,73.5C33600,65,34080,131,34320,163.3L34560,196L34560,490L34320,490C34080,490,33600,490,33120,490C32640,490,32160,490,31680,490C31200,490,30720,490,30240,490C29760,490,29280,490,28800,490C28320,490,27840,490,27360,490C26880,490,26400,490,25920,490C25440,490,24960,490,24480,490C24000,490,23520,490,23040,490C22560,490,22080,490,21600,490C21120,490,20640,490,20160,490C19680,490,19200,490,18720,490C18240,490,17760,490,17280,490C16800,490,16320,490,15840,490C15360,490,14880,490,14400,490C13920,490,13440,490,12960,490C12480,490,12000,490,11520,490C11040,490,10560,490,10080,490C9600,490,9120,490,8640,490C8160,490,7680,490,7200,490C6720,490,6240,490,5760,490C5280,490,4800,490,4320,490C3840,490,3360,490,2880,490C2400,490,1920,490,1440,490C960,490,480,490,240,490L0,490Z"/></svg>